<svg xmlns="http://www.w3.org/2000/svg" xmlns:xlink="http://www.w3.org/1999/xlink" width="65" zoomAndPan="magnify" viewBox="0 0 48.75 48.75" height="65" preserveAspectRatio="xMidYMid meet" version="1.0"><defs><clipPath id="5b27b4a02b"><path d="M 1.121094 1 L 47.382812 1 L 47.382812 48 L 1.121094 48 Z M 1.121094 1 " clip-rule="nonzero"/></clipPath></defs><g clip-path="url(#5b27b4a02b)"><path fill="#000000" d="M 1.15625 24.25 C 1.15625 25.003906 1.195312 25.757812 1.269531 26.511719 C 1.34375 27.265625 1.453125 28.011719 1.601562 28.753906 C 1.75 29.496094 1.933594 30.226562 2.152344 30.949219 C 2.371094 31.675781 2.625 32.386719 2.914062 33.085938 C 3.203125 33.78125 3.527344 34.464844 3.882812 35.132812 C 4.242188 35.800781 4.628906 36.445312 5.050781 37.074219 C 5.46875 37.703125 5.917969 38.3125 6.398438 38.894531 C 6.878906 39.480469 7.386719 40.039062 7.921875 40.574219 C 8.457031 41.109375 9.015625 41.617188 9.597656 42.097656 C 10.183594 42.578125 10.789062 43.027344 11.417969 43.445312 C 12.046875 43.867188 12.695312 44.253906 13.363281 44.609375 C 14.03125 44.96875 14.710938 45.289062 15.410156 45.578125 C 16.109375 45.871094 16.820312 46.125 17.542969 46.34375 C 18.269531 46.5625 19 46.746094 19.742188 46.894531 C 20.484375 47.042969 21.230469 47.152344 21.984375 47.226562 C 22.738281 47.300781 23.492188 47.335938 24.246094 47.335938 C 25.003906 47.335938 25.757812 47.300781 26.511719 47.226562 C 27.261719 47.152344 28.011719 47.042969 28.75 46.894531 C 29.492188 46.746094 30.226562 46.5625 30.949219 46.34375 C 31.671875 46.125 32.382812 45.871094 33.082031 45.578125 C 33.78125 45.289062 34.464844 44.96875 35.132812 44.609375 C 35.796875 44.253906 36.445312 43.867188 37.074219 43.445312 C 37.703125 43.027344 38.308594 42.578125 38.894531 42.097656 C 39.480469 41.617188 40.039062 41.109375 40.574219 40.574219 C 41.109375 40.039062 41.617188 39.480469 42.09375 38.894531 C 42.574219 38.3125 43.023438 37.703125 43.445312 37.074219 C 43.867188 36.445312 44.253906 35.800781 44.609375 35.132812 C 44.964844 34.464844 45.289062 33.78125 45.578125 33.085938 C 45.867188 32.386719 46.121094 31.675781 46.34375 30.949219 C 46.5625 30.226562 46.746094 29.496094 46.894531 28.753906 C 47.039062 28.011719 47.152344 27.265625 47.226562 26.511719 C 47.300781 25.757812 47.335938 25.003906 47.335938 24.25 C 47.335938 23.492188 47.300781 22.738281 47.226562 21.984375 C 47.152344 21.230469 47.039062 20.484375 46.894531 19.742188 C 46.746094 19 46.5625 18.269531 46.34375 17.546875 C 46.121094 16.820312 45.867188 16.109375 45.578125 15.410156 C 45.289062 14.714844 44.964844 14.03125 44.609375 13.363281 C 44.253906 12.695312 43.867188 12.050781 43.445312 11.421875 C 43.023438 10.792969 42.574219 10.183594 42.09375 9.601562 C 41.617188 9.015625 41.109375 8.457031 40.574219 7.921875 C 40.039062 7.386719 39.480469 6.878906 38.894531 6.398438 C 38.308594 5.921875 37.703125 5.46875 37.074219 5.050781 C 36.445312 4.628906 35.796875 4.242188 35.132812 3.886719 C 34.464844 3.527344 33.78125 3.207031 33.082031 2.917969 C 32.382812 2.625 31.671875 2.371094 30.949219 2.152344 C 30.226562 1.933594 29.492188 1.75 28.75 1.601562 C 28.011719 1.453125 27.261719 1.34375 26.511719 1.269531 C 25.757812 1.195312 25.003906 1.160156 24.246094 1.160156 C 23.492188 1.160156 22.738281 1.195312 21.984375 1.269531 C 21.230469 1.34375 20.484375 1.453125 19.742188 1.601562 C 19 1.75 18.269531 1.933594 17.542969 2.152344 C 16.820312 2.371094 16.109375 2.625 15.410156 2.917969 C 14.710938 3.207031 14.03125 3.527344 13.363281 3.886719 C 12.695312 4.242188 12.046875 4.628906 11.417969 5.050781 C 10.789062 5.46875 10.183594 5.921875 9.597656 6.398438 C 9.015625 6.878906 8.457031 7.386719 7.921875 7.921875 C 7.386719 8.457031 6.878906 9.015625 6.398438 9.601562 C 5.917969 10.183594 5.46875 10.792969 5.050781 11.421875 C 4.628906 12.050781 4.242188 12.695312 3.882812 13.363281 C 3.527344 14.03125 3.203125 14.714844 2.914062 15.410156 C 2.625 16.109375 2.371094 16.820312 2.152344 17.546875 C 1.933594 18.269531 1.75 19 1.601562 19.742188 C 1.453125 20.484375 1.34375 21.230469 1.269531 21.984375 C 1.195312 22.738281 1.15625 23.492188 1.15625 24.25 Z M 1.15625 24.25 " fill-opacity="1" fill-rule="nonzero"/></g><path fill="#ffffff" d="M 25.375 31.621094 L 23.121094 31.621094 C 22.730469 31.621094 22.410156 31.3125 22.398438 30.921875 L 21.722656 9.269531 C 21.710938 8.859375 22.035156 8.523438 22.441406 8.523438 L 26.050781 8.523438 C 26.457031 8.523438 26.785156 8.859375 26.773438 9.269531 L 26.09375 30.921875 C 26.082031 31.3125 25.765625 31.621094 25.375 31.621094 Z M 25.375 31.621094 " fill-opacity="1" fill-rule="nonzero"/><path fill="#ffffff" d="M 21.601562 37.324219 C 21.601562 37.675781 21.667969 38.015625 21.800781 38.339844 C 21.9375 38.664062 22.128906 38.949219 22.375 39.195312 C 22.625 39.445312 22.910156 39.636719 23.234375 39.769531 C 23.558594 39.90625 23.894531 39.972656 24.246094 39.972656 C 24.597656 39.972656 24.9375 39.90625 25.261719 39.769531 C 25.585938 39.636719 25.871094 39.445312 26.117188 39.195312 C 26.367188 38.949219 26.558594 38.664062 26.691406 38.339844 C 26.828125 38.015625 26.894531 37.675781 26.894531 37.324219 C 26.894531 36.972656 26.828125 36.636719 26.691406 36.3125 C 26.558594 35.988281 26.367188 35.703125 26.117188 35.453125 C 25.871094 35.207031 25.585938 35.015625 25.261719 34.878906 C 24.9375 34.746094 24.597656 34.679688 24.246094 34.679688 C 23.894531 34.679688 23.558594 34.746094 23.234375 34.878906 C 22.910156 35.015625 22.625 35.207031 22.375 35.453125 C 22.128906 35.703125 21.9375 35.988281 21.800781 36.3125 C 21.667969 36.636719 21.601562 36.972656 21.601562 37.324219 Z M 21.601562 37.324219 " fill-opacity="1" fill-rule="nonzero"/></svg>